<svg width="23" height="23" viewBox="0 0 23 23" fill="none" xmlns="http://www.w3.org/2000/svg">
<path d="M13.8287 18.0358C13.6466 18.0358 13.4646 17.9687 13.3208 17.825C13.0429 17.5471 13.0429 17.0871 13.3208 16.8092L18.63 11.5L13.3208 6.19082C13.0429 5.91291 13.0429 5.45291 13.3208 5.17499C13.5987 4.89707 14.0587 4.89707 14.3366 5.17499L20.1537 10.9921C20.4316 11.27 20.4316 11.73 20.1537 12.0079L14.3366 17.825C14.1929 17.9687 14.0108 18.0358 13.8287 18.0358Z" fill="#292D32"/>
<path d="M19.4829 12.2188H3.35419C2.96127 12.2188 2.63544 11.8929 2.63544 11.5C2.63544 11.1071 2.96127 10.7812 3.35419 10.7812H19.4829C19.8759 10.7812 20.2017 11.1071 20.2017 11.5C20.2017 11.8929 19.8759 12.2188 19.4829 12.2188Z" fill="#292D32"/>
</svg>
