<svg width="23" height="24" viewBox="0 0 23 24" fill="none" xmlns="http://www.w3.org/2000/svg">
<path d="M11.4655 13.5517C11.3444 13.5517 11.2232 13.5233 11.1114 13.4568L2.88465 8.60257C2.54924 8.40308 2.43742 7.96608 2.63307 7.6241C2.82873 7.28212 3.24799 7.16811 3.59271 7.3676L11.4655 12.0128L19.2917 7.39612C19.6271 7.19663 20.0557 7.32014 20.2513 7.65263C20.447 7.99461 20.3259 8.43155 19.9998 8.63104L11.8289 13.4568C11.7077 13.5138 11.5866 13.5517 11.4655 13.5517Z" fill="#D6DDE5"/>
<path d="M11.4656 22.1583C11.0836 22.1583 10.7669 21.8353 10.7669 21.4458V12.8298C10.7669 12.4404 11.0836 12.1174 11.4656 12.1174C11.8476 12.1174 12.1644 12.4404 12.1644 12.8298V21.4458C12.1644 21.8353 11.8476 22.1583 11.4656 22.1583Z" fill="#D6DDE5"/>
<path d="M11.4655 22.5287C10.6456 22.5287 9.82574 22.3482 9.19219 21.9777L4.21698 19.1659C2.86603 18.406 1.80391 16.5726 1.80391 14.9957V9.61894C1.80391 8.04203 2.86603 6.21818 4.21698 5.44872L9.19219 2.63687C10.4593 1.91491 12.4531 1.91491 13.7295 2.63687L18.7047 5.44872C20.0557 6.20868 21.1178 8.04203 21.1178 9.61894V14.9957C21.1178 15.0622 21.1178 15.1571 21.0898 15.2806C21.0339 15.5276 20.8569 15.7271 20.624 15.8031C20.3911 15.8791 20.1302 15.8316 19.9439 15.6606C18.8818 14.7107 17.2233 14.6727 16.0867 15.5941C15.3693 16.1736 14.95 17.057 14.95 17.9975C14.95 18.5579 15.0991 19.1089 15.3879 19.5839C15.4625 19.7169 15.537 19.8214 15.6208 19.9164C15.7606 20.0779 15.8165 20.2963 15.7792 20.5053C15.742 20.7143 15.6115 20.9043 15.4252 20.9993L13.7202 21.9588C13.096 22.3482 12.2854 22.5287 11.4655 22.5287ZM11.4655 3.52982C10.8879 3.52982 10.3009 3.65331 9.88163 3.8908L4.90642 6.70266C4.00268 7.21563 3.22007 8.574 3.22007 9.61894V14.9957C3.22007 16.0406 4.012 17.4085 4.90642 17.912L9.88163 20.7238C10.7295 21.2083 12.2109 21.2083 13.0587 20.7238L14.1022 20.1348C13.7575 19.4984 13.5711 18.7574 13.5711 17.9975C13.5711 16.6105 14.1767 15.3282 15.2295 14.4732C16.506 13.4378 18.3134 13.2192 19.7296 13.8462V9.60949C19.7296 8.56455 18.9377 7.19662 18.0432 6.69315L13.068 3.88129C12.6301 3.65331 12.0432 3.52982 11.4655 3.52982Z" fill="#D6DDE5"/>
<path d="M17.9875 22.5287C15.5464 22.5287 13.5619 20.5053 13.5619 18.0165C13.5619 16.6296 14.1675 15.3471 15.2203 14.4922C16.003 13.8557 16.9905 13.5042 17.9875 13.5042C20.4285 13.5042 22.413 15.5276 22.413 18.0165C22.413 19.3084 21.8633 20.5433 20.9036 21.3983C20.0931 22.1297 19.0589 22.5287 17.9875 22.5287ZM17.9875 14.9292C17.298 14.9292 16.6458 15.1666 16.0961 15.6131C15.3787 16.1926 14.9595 17.076 14.9595 18.0165C14.9595 19.7169 16.3197 21.1038 17.9875 21.1038C18.7142 21.1038 19.4223 20.8283 19.9906 20.3343C20.6428 19.7454 21.0154 18.9094 21.0154 18.0165C21.0154 16.3161 19.6552 14.9292 17.9875 14.9292Z" fill="#D6DDE5"/>
<path d="M17.0557 19.6789C16.8227 19.6789 16.5898 19.5554 16.4594 19.3369C16.2637 18.995 16.3662 18.558 16.7016 18.3585L17.5308 17.855V16.8291C17.5308 16.4396 17.8476 16.1166 18.2296 16.1166C18.6116 16.1166 18.9284 16.4396 18.9284 16.8291V18.254C18.9284 18.501 18.7979 18.7385 18.593 18.862L17.4283 19.5744C17.2979 19.6504 17.1768 19.6789 17.0557 19.6789Z" fill="#D6DDE5"/>
</svg>
