<svg width="23" height="24" viewBox="0 0 23 24" fill="none" xmlns="http://www.w3.org/2000/svg">
<path d="M11.7126 22.5287C6.18764 22.5287 1.6969 17.95 1.6969 12.3168C1.6969 6.68365 6.18764 2.10492 11.7126 2.10492C17.2375 2.10492 21.7282 6.68365 21.7282 12.3168C21.7282 17.95 17.2375 22.5287 11.7126 22.5287ZM11.7126 3.52984C6.96094 3.52984 3.09443 7.47211 3.09443 12.3168C3.09443 17.1615 6.96094 21.1038 11.7126 21.1038C16.4642 21.1038 20.3307 17.1615 20.3307 12.3168C20.3307 7.47211 16.4642 3.52984 11.7126 3.52984Z" fill="#D6DDE5"/>
<path d="M15.1691 16.0501C15.048 16.0501 14.9269 16.0216 14.8151 15.9456L11.9268 14.1882C11.2094 13.7512 10.6784 12.7918 10.6784 11.9463V8.05157C10.6784 7.66209 10.9951 7.33911 11.3771 7.33911C11.7591 7.33911 12.0759 7.66209 12.0759 8.05157V11.9463C12.0759 12.2883 12.3554 12.7918 12.6442 12.9628L15.5325 14.7202C15.8679 14.9197 15.9704 15.3566 15.7747 15.6986C15.635 15.9266 15.402 16.0501 15.1691 16.0501Z" fill="#D6DDE5"/>
</svg>
