<svg width="20" height="24" viewBox="0 0 20 24" fill="none" xmlns="http://www.w3.org/2000/svg">
<path d="M12.8713 23.2831H4.39873C2.44192 23.2831 0.850006 21.6761 0.850006 19.7007V7.56536C0.850006 5.58998 2.44192 3.98296 4.39873 3.98296H12.8713C14.8281 3.98296 16.42 5.58998 16.42 7.56536V19.7007C16.42 21.6761 14.8281 23.2831 12.8713 23.2831ZM4.39873 5.77416C3.42039 5.77416 2.62437 6.57773 2.62437 7.56536V19.7007C2.62437 20.6884 3.42039 21.4919 4.39873 21.4919H12.8713C13.8496 21.4919 14.6457 20.6884 14.6457 19.7007V7.56536C14.6457 6.57773 13.8496 5.77416 12.8713 5.77416H4.39873ZM19.9688 17.4617V3.93818C19.9688 1.96279 18.3768 0.355774 16.42 0.355774H6.57232C6.08229 0.355774 5.68514 0.756689 5.68514 1.25137C5.68514 1.74606 6.08229 2.14697 6.57232 2.14697H16.42C17.3984 2.14697 18.1944 2.95055 18.1944 3.93818V17.4617C18.1944 17.9564 18.5915 18.3573 19.0816 18.3573C19.5716 18.3573 19.9688 17.9564 19.9688 17.4617Z" fill="#92A1AD"/>
</svg>
