<svg width="21" height="19" viewBox="0 0 21 19" fill="none" xmlns="http://www.w3.org/2000/svg">
<path d="M1.565 15.924C1.565 13.8491 3.04369 12.0817 5.05328 11.7547L5.2343 11.7253C6.84347 11.4634 8.48319 11.4634 10.0924 11.7253L10.2734 11.7547C12.283 12.0817 13.7617 13.8491 13.7617 15.924C13.7617 16.8208 13.0486 17.5478 12.169 17.5478H3.15765C2.27805 17.5478 1.565 16.8208 1.565 15.924Z" stroke="#363853" stroke-width="1.5"/>
<path d="M11.2207 4.59404C11.2207 6.59721 9.628 8.22111 7.66333 8.22111C5.69865 8.22111 4.10597 6.59721 4.10597 4.59404C4.10597 2.59087 5.69865 0.96698 7.66333 0.96698C9.628 0.96698 11.2207 2.59087 11.2207 4.59404Z" stroke="#363853" stroke-width="1.5"/>
<path d="M13.7617 8.22111C15.7264 8.22111 17.319 6.59721 17.319 4.59404C17.319 2.59087 15.7264 0.96698 13.7617 0.96698M16.1907 17.5478H18.2674C19.147 17.5478 19.86 16.8208 19.86 15.924C19.86 13.8491 18.3813 12.0817 16.3717 11.7547V11.7547C16.2513 11.7351 16.1292 11.7253 16.0071 11.7253C15.6822 11.7253 15.5812 11.7253 15.0232 11.7253" stroke="#363853" stroke-width="1.5" stroke-linecap="round"/>
</svg>
