<svg width="154" height="57" viewBox="0 0 154 57" fill="none" xmlns="http://www.w3.org/2000/svg">
<path d="M27.5264 20.9219L26.8408 22.1875L25.417 21.4316L26.0762 20.1748L27.5264 20.9219ZM25.5049 21.7129L24.8369 22.9873L23.4131 22.249L24.0635 20.9746L25.5049 21.7129ZM29.75 31.4248H28.4932C28.0713 31.4248 27.6992 31.0645 27.377 30.3438C27.1367 29.8047 26.9434 29.1104 26.7969 28.2607C26.6211 28.5889 26.3984 28.8438 26.1289 29.0254C25.8594 29.207 25.5752 29.2979 25.2764 29.2979C24.6025 29.2979 24.04 29.2539 23.5889 29.166C23.1436 29.0723 22.9209 28.9551 22.9209 28.8145C22.9209 28.3105 23.249 27.7539 23.9053 27.1445C24.5615 26.5293 25.3818 25.9932 26.3662 25.5361C26.3545 25.4893 26.3281 25.3662 26.2871 25.167C26.252 24.9678 26.2344 24.8447 26.2344 24.7979C26.2344 24.5986 26.3018 24.376 26.4365 24.1299C26.5479 23.9307 26.6943 23.7256 26.876 23.5146C26.9346 23.8779 26.9932 24.2295 27.0518 24.5693C27.1162 24.9092 27.1895 25.2607 27.2715 25.624L27.5352 27.1357C27.6816 27.9678 27.8135 28.583 27.9307 28.9814C28.1123 29.5908 28.2998 29.8955 28.4932 29.8955H29.75V31.4248ZM26.6826 27.4961L26.5156 26.5381C26.0059 26.7197 25.6045 26.9102 25.3115 27.1094C25.0186 27.3027 24.7725 27.5605 24.5732 27.8828C24.6963 27.9355 24.8398 27.9766 25.0039 28.0059C25.168 28.0352 25.3936 28.0498 25.6807 28.0498C26.0322 28.0498 26.3662 27.8652 26.6826 27.4961ZM33.4766 31.4248H29.1348V29.8955H32.5889L31.543 22.4424L31.0859 22.2227C31.0859 21.8184 31.1211 21.4404 31.1914 21.0889C31.2617 20.7314 31.3672 20.3857 31.5078 20.0518L31.6396 20.1484C31.6396 20.4883 31.8301 20.7432 32.2109 20.9131C32.5039 21.0303 32.7998 21.1475 33.0986 21.2646C33.0986 21.5576 33.0752 21.8711 33.0283 22.2051C32.9814 22.5391 32.9258 22.7881 32.8613 22.9521L32.4395 22.8115L33.4766 29.7021V31.4248ZM40.5693 31.4248H39.2773C38.8965 31.4248 38.5098 31.334 38.1172 31.1523C37.6484 30.9355 37.3086 30.6338 37.0977 30.2471C36.7051 30.5986 36.2568 30.8711 35.7529 31.0645C35.1377 31.3047 34.4375 31.4248 33.6523 31.4248H32.8613V29.8955H33.6523C34.1445 29.8955 34.6016 29.8428 35.0234 29.7373C35.5039 29.6143 35.9756 29.418 36.4385 29.1484L36.0693 28.6738C35.8818 28.4512 35.6709 28.3398 35.4365 28.3398C35.3311 28.3398 35.2373 28.3604 35.1553 28.4014C35.0732 28.4365 34.9824 28.5186 34.8828 28.6475H34.6982V28.1289C34.6982 27.4844 34.8682 27.042 35.208 26.8018C35.5186 26.585 36.0576 26.4766 36.8252 26.4766C37.4873 26.4766 38.0264 26.5645 38.4424 26.7402C38.9873 26.9688 39.2598 27.3203 39.2598 27.7949C39.2598 28.0469 39.1514 28.3076 38.9346 28.5771C38.7764 28.7764 38.4863 29.0518 38.0645 29.4033C38.1582 29.5439 38.3369 29.6611 38.6006 29.7549C38.8701 29.8486 39.0957 29.8955 39.2773 29.8955H40.5693V31.4248ZM44.542 22.0908L43.7686 23.3564L42.5381 22.5127L43.2676 21.2822L44.542 22.0908ZM45.3066 31.4248H39.9629V29.8955H42.9775C43.3408 29.8955 43.6484 29.8838 43.9004 29.8604C44.1582 29.8311 44.4365 29.7725 44.7354 29.6846C43.7275 29.5381 43.0742 29.4004 42.7754 29.2715C42.1016 28.9785 41.7646 28.4805 41.7646 27.7773C41.7646 27.1621 41.9258 26.582 42.248 26.0371C42.6113 25.4219 43.0537 25.1143 43.5752 25.1143C44.1729 25.1143 44.627 25.4951 44.9375 26.2568C45.1836 26.8604 45.3066 27.5723 45.3066 28.3926V31.4248ZM44.5156 28.3574C44.3809 27.8887 44.252 27.54 44.1289 27.3115C43.8887 26.8721 43.5986 26.6523 43.2588 26.6523C43.0947 26.6523 42.9541 26.7168 42.8369 26.8457C42.7197 26.9746 42.6611 27.127 42.6611 27.3027C42.6611 27.748 42.8926 28.0469 43.3555 28.1992C43.5195 28.252 43.9062 28.3047 44.5156 28.3574ZM52.3994 31.4248H51.4854C51.0928 31.4248 50.6504 31.3369 50.1582 31.1611C49.5898 30.9561 49.0889 30.6748 48.6553 30.3174C48.3154 30.7334 47.9668 31.0234 47.6094 31.1875C47.2578 31.3457 46.7422 31.4248 46.0625 31.4248H44.6914V29.8955H46.0361C46.5693 29.8955 47.0439 29.7607 47.46 29.4912C47.7822 29.2803 48.0752 28.9844 48.3389 28.6035C48.6963 28.0879 49.1357 27.6396 49.6572 27.2588C50.126 26.9189 50.5566 26.7021 50.9492 26.6084C51.3535 27.2236 51.6758 27.7773 51.916 28.2695C52.2383 28.9375 52.3994 29.4795 52.3994 29.8955V31.4248ZM51.3887 29.6934C51.3125 29.3535 51.1953 29.0195 51.0371 28.6914C50.9023 28.416 50.7236 28.1318 50.501 27.8389C50.2197 27.9092 49.9824 28.041 49.7891 28.2344C49.6602 28.3574 49.5078 28.5654 49.332 28.8584C49.543 29.0869 49.8389 29.292 50.2197 29.4736C50.6064 29.6553 50.9697 29.7666 51.3096 29.8076L51.3887 29.6934Z" fill="#1C1C28"/>
<rect width="58" height="30" rx="15" transform="matrix(-1 0 0 1 139 14)" fill="#0771DE"/>
<circle cx="11" cy="11" r="11" transform="matrix(-1 0 0 1 106 18)" fill="white"/>
</svg>
