<svg width="21" height="22" viewBox="0 0 21 22" fill="none" xmlns="http://www.w3.org/2000/svg">
<path d="M10.6299 20.3792C5.60724 20.3792 1.52475 16.2168 1.52475 11.0957C1.52475 5.97462 5.60724 1.81213 10.6299 1.81213C15.6525 1.81213 19.735 5.97462 19.735 11.0957C19.735 16.2168 15.6525 20.3792 10.6299 20.3792ZM10.6299 3.10751C6.31024 3.10751 2.79523 6.6914 2.79523 11.0957C2.79523 15.5 6.31024 19.0839 10.6299 19.0839C14.9495 19.0839 18.4645 15.5 18.4645 11.0957C18.4645 6.6914 14.9495 3.10751 10.6299 3.10751Z" fill="#D6DDE5"/>
<path d="M10.6299 12.607C10.2826 12.607 9.99463 12.3133 9.99463 11.9593V7.64134C9.99463 7.28727 10.2826 6.99365 10.6299 6.99365C10.9771 6.99365 11.2651 7.28727 11.2651 7.64134V11.9593C11.2651 12.3133 10.9771 12.607 10.6299 12.607Z" fill="#D6DDE5"/>
<path d="M10.6299 15.4136C10.5198 15.4136 10.4097 15.3877 10.308 15.3445C10.2064 15.3014 10.1132 15.2409 10.0285 15.1632C9.9523 15.0768 9.89301 14.9905 9.85066 14.8782C9.80831 14.7746 9.7829 14.6623 9.7829 14.55C9.7829 14.4378 9.80831 14.3255 9.85066 14.2219C9.89301 14.1182 9.9523 14.0232 10.0285 13.9369C10.1132 13.8592 10.2064 13.7987 10.308 13.7555C10.5113 13.6692 10.7485 13.6692 10.9517 13.7555C11.0534 13.7987 11.1466 13.8592 11.2313 13.9369C11.3075 14.0232 11.3668 14.1182 11.4091 14.2219C11.4515 14.3255 11.4769 14.4378 11.4769 14.55C11.4769 14.6623 11.4515 14.7746 11.4091 14.8782C11.3668 14.9905 11.3075 15.0768 11.2313 15.1632C11.1466 15.2409 11.0534 15.3014 10.9517 15.3445C10.8501 15.3877 10.74 15.4136 10.6299 15.4136Z" fill="#D6DDE5"/>
</svg>
