<svg width="17" height="21" viewBox="0 0 17 21" fill="none" xmlns="http://www.w3.org/2000/svg">
<path d="M1.41643 17.6634C1.41643 15.1627 3.14157 13.0326 5.48609 12.6385L5.69727 12.603C7.57464 12.2874 9.48764 12.2874 11.365 12.603L11.5762 12.6385C13.9207 13.0326 15.6459 15.1627 15.6459 17.6634C15.6459 18.7442 14.814 19.6204 13.7878 19.6204H3.27451C2.24832 19.6204 1.41643 18.7442 1.41643 17.6634Z" stroke="#1C1C28" stroke-width="1.5"/>
<path d="M12.6814 5.04743C12.6814 7.30099 10.8233 9.12787 8.53116 9.12787C6.23904 9.12787 4.38091 7.30099 4.38091 5.04743C4.38091 2.79386 6.23904 0.96698 8.53116 0.96698C10.8233 0.96698 12.6814 2.79386 12.6814 5.04743Z" stroke="#1C1C28" stroke-width="1.5"/>
</svg>
